<svg xmlns="http://www.w3.org/2000/svg" xmlns:xlink="http://www.w3.org/1999/xlink" width="999" height="1300" viewBox="0 0 499.5 650">
  <defs>
    <style>
      .cls-1 {
        fill: #3e4b68;
        fill-rule: evenodd;
      }
    </style>
    <clipPath id="clip-path">
      <rect x="-139.25" y="-15" width="1280" height="680"/>
    </clipPath>
  </defs>
  <g clip-path="url(#clip-path)">
    <path id="Forme_1" data-name="Forme 1" class="cls-1" d="M778,801V698.778L332.758,356.131,778,594.336V471.749l-444.068-116.9L778,399.539v-98.23L333.329,353.225,778,225.832V100.957L333.233,351.5,778,9.222V-93H688.558L331.635,350.775,579.765-93H452.1L330.322,349.624,384.331-93H263.857l64.809,443.214L195.963-93H71.28L326.906,350.308-29.642-93H-116V11.6L326.158,351.869-116,115.314V237.063L324.987,353.155-116,301.669V406.332l441.584-51.557L-116,481.284V605.306L325.684,356.5-116,696.405V801h86.358L327.281,357.225,79.151,801H206.815L328.594,358.376,274.585,801H398.634L330.25,357.787,462.953,801H593L332.009,357.691,688.558,801H778Z" transform="translate(-139.25 -15)"/>
  </g>
</svg>
